<?xml version="1.0" encoding="utf-8"?>
<svg xmlns="http://www.w3.org/2000/svg" xmlns:svg="http://www.w3.org/2000/svg" version="1.1" viewBox="0 0 1400 340">
	<title>The titlepage for the Standard Ebooks edition of My Ántonia, by Willa Cather</title>
	<g aria-label="MY ÁNTONIA">
		<path d="m 429.49269,130 h 17.59064 L 440.15935,52.807016 H 421.4459 L 404.32309,97.345029 387.20029,52.807016 H 368.48684 L 361.56286,130 h 17.59064 l 3.64913,-45.754387 h 0.46783 l 15.81287,45.286547 h 10.47953 l 15.81287,-45.286547 h 0.46783 z"/>
		<path d="m 442.30263,52.807016 28.44444,42.5731 V 130 h 17.59065 V 95.380116 l 28.44444,-42.5731 h -21.1462 L 479.54239,77.508771 463.44883,52.807016 Z"/>
		<path d="m 580.74854,38.678361 5.23976,7.204678 22.26901,-12.91228 -8.51462,-10.760235 z m 13.66081,14.128655 h -16.2807 L 546.97076,130 h 18.90058 l 5.7076,-15.4386 h 29.38012 L 606.66666,130 h 18.90059 z m 0.56141,46.31579 h -17.40351 l 8.60819,-22.45614 h 0.18713 z"/>
		<path d="m 651.0775,82.093566 h 0.18713 L 681.95469,130 h 17.59065 V 52.807016 h -17.59065 v 47.906434 h -0.18713 L 651.0775,52.807016 H 633.48686 V 130 h 17.59064 z"/>
		<path d="m 706.35528,68.245613 h 18.33918 V 130 H 742.2851 V 68.245613 h 18.33918 V 52.807016 h -54.269 z"/>
		<path d="m 765.57309,91.356724 c 0,22.549706 16.09356,40.046786 38.92397,40.046786 22.17544,0 38.83041,-17.49708 38.83041,-40.046786 0,-22.549708 -17.40351,-39.953217 -38.83041,-39.953217 -21.23976,0 -38.92397,17.403509 -38.92397,39.953217 z m 18.99415,0 c 0,-11.508772 6.36257,-23.017544 19.92982,-23.017544 13.66082,0 19.83626,11.508772 19.83626,23.017544 0,11.508776 -5.80117,23.017546 -19.83626,23.017546 -14.40935,0 -19.92982,-11.50877 -19.92982,-23.017546 z"/>
		<path d="m 873.67983,82.093566 h 0.18713 L 904.55702,130 h 17.59064 V 52.807016 h -17.59064 v 47.906434 h -0.18714 L 873.67983,52.807016 H 856.08918 V 130 h 17.59065 z"/>
		<path d="M 955.98244,52.807016 H 938.39179 V 130 h 17.59065 z"/>
		<path d="M 1011.4707,52.807016 H 995.19004 L 964.03214,130 h 18.90059 l 5.7076,-15.4386 h 29.38007 L 1023.7281,130 h 18.9005 z m 0.5614,46.31579 h -17.40346 l 8.60816,-22.45614 h 0.1872 z"/>
	</g>
	<g aria-label="WILLA CATHER">
		<path d="m 449.47588,290 h 14.59649 l 16.49123,-57.89474 h -14.59649 l -9.89474,39.7193 h -0.35088 l -10.52631,-39.7193 h -9.96491 l -10.52632,39.7193 h -0.35088 l -9.89473,-39.7193 H 399.79167 L 416.2829,290 h 14.66666 l 9.26316,-32.49123 z"/>
		<path d="M 501.92106,232.10526 H 488.72808 V 290 h 13.19298 z"/>
		<path d="M 528.57676,232.10526 H 515.38378 V 290 h 33.1228 v -11.57895 h -19.92982 z"/>
		<path d="M 573.18751,232.10526 H 559.99452 V 290 h 33.12281 v -11.57895 h -19.92982 z"/>
		<path d="M 635.10526,232.10526 H 622.89474 L 599.52632,290 h 14.17543 l 4.28071,-11.57895 h 22.03508 L 644.29824,290 h 14.17544 z m 0.42106,34.73685 H 622.47368 L 628.92982,250 h 0.14035 z"/>
		<path d="m 718.466,278.07018 c -13.26316,0 -19.08772,-9.26316 -19.08772,-17.05264 0,-7.71929 5.82456,-16.98245 19.08772,-16.98245 6.73684,0 11.36842,3.57895 11.36842,3.57895 l 5.61404,-11.22807 c 0,0 -6.45614,-5.33334 -19.01755,-5.33334 -16.42105,0 -31.36842,13.47369 -31.36842,30.10527 0,16.5614 15.01755,29.89473 31.36842,29.89473 12.56141,0 19.01755,-5.33333 19.01755,-5.33333 l -5.61404,-11.22807 c 0,0 -4.63158,3.57895 -11.36842,3.57895 z"/>
		<path d="M 774.96819,232.10526 H 762.75767 L 739.38925,290 h 14.17543 l 4.28071,-11.57895 h 22.03508 L 784.16118,290 h 14.17543 z m 0.42106,34.73685 H 762.33661 L 768.79275,250 h 0.14036 z"/>
		<path d="m 798.45066,243.68421 h 13.75438 V 290 h 13.19298 v -46.31579 h 13.75439 v -11.57895 h -40.70175 z"/>
		<path d="m 862.0965,266.77193 h 18.66667 V 290 h 13.19298 v -57.89474 h -13.19298 v 23.08772 H 862.0965 V 232.10526 H 848.90352 V 290 h 13.19298 z"/>
		<path d="M 940.48025,232.10526 H 907.35744 V 290 h 33.12281 v -11.57895 h -19.92983 v -11.64912 h 19.08772 v -11.57895 h -19.08772 v -11.50877 h 19.92983 z"/>
		<path d="M 953.06471,232.10526 V 290 H 966.2577 V 267.12281 L 983.94191,290 h 16.77189 l -19.92979,-23.92982 c 7.08772,-2.24562 11.85965,-8.07018 11.85965,-16.77193 0,-11.36842 -8.14035,-17.19299 -18.87719,-17.19299 z m 13.19299,25.68421 v -15.15789 h 1.54386 c 4.98245,0 10.94737,0.35088 10.94737,7.57895 0,7.22807 -5.96492,7.57894 -10.94737,7.57894 z"/>
	</g>
</svg>
